<svg id="Calque_1" data-name="Calque 1" xmlns="http://www.w3.org/2000/svg" viewBox="0 0 882.1 882.1"><defs><style>.cls-1{fill:none;}.cls-2{fill:#bbd7ff;}.cls-3{fill:#fff;}</style></defs><title>paon_blanc</title><g id="Calque_3" data-name="Calque 3"><path class="cls-1" d="M619.6,521.7V845.8c-10.6,4.6-21.5,8.8-32.6,12.6l-.8.3c-12.8-9.4-233.2-164.8-92.4-216.5.5-.2,1.1-.4,1.6-.6s1.1-.4,1.7-.6c1.3-.4,2.5-.8,3.8-1.3.6-.2,1.1-.4,1.7-.6.8-.3,1.6-.6,2.3-.9s1.1-.4,1.6-.6,1-.4,1.4-.6a18,18,0,0,1,2.1-.8l1.5-.6c.6-.3,1.2-.5,1.7-.8,1.9-.8,3.9-1.7,5.8-2.6.6-.3,1.1-.5,1.7-.8.2-.1.5-.2.7-.3a18.65,18.65,0,0,0,2-1l1.8-.9c.7-.4,1.4-.7,2.1-1.1s1.6-.9,2.4-1.3l2.1-1.2c1.8-1.1,3.7-2.1,5.5-3.3.6-.4,1.2-.7,1.8-1.1.8-.5,1.5-1,2.3-1.5s1.5-1,2.3-1.5l3.9-2.7c1-.7,1.9-1.4,2.8-2.1,1.3-.9,2.6-1.9,3.8-2.9.8-.7,1.7-1.3,2.5-2s1.4-1.1,2.1-1.7c2.1-1.7,4.1-3.5,6.1-5.3.7-.7,1.5-1.3,2.2-2,1.4-1.4,2.9-2.7,4.3-4.1,1.9-1.9,3.8-3.8,5.6-5.8l3.3-3.6c2.1-2.4,4.2-4.9,6.2-7.4,1-1.3,2-2.6,3-3.8,2.2-2.9,4.3-5.9,6.3-8.9s4-6.2,5.8-9.3c1.2-2,2.3-4,3.4-6,.6-1.1,1.2-2.2,1.7-3.3.8-1.5,1.5-2.9,2.2-4.4l2.1-4.5c.4-1,.9-2,1.3-3h0q2.55-6,4.8-12.3Z" transform="translate(-0.1 -0.3)"/><path class="cls-2" d="M470.1,826.3Z" transform="translate(-0.1 -0.3)"/><path class="cls-1" d="M359.2,289.7a184.23,184.23,0,0,0-28,16l-107-195.1A411.36,411.36,0,0,1,281,79.4Z" transform="translate(-0.1 -0.3)"/><path class="cls-1" d="M442.3,272.4h-4a185.81,185.81,0,0,0-33.6,3L384.6,47.9A422,422,0,0,1,428.4,43Z" transform="translate(-0.1 -0.3)"/><path class="cls-1" d="M611.3,73.3,521.6,291.6a196,196,0,0,0-32-12.3L537.5,50.8A426,426,0,0,1,611.3,73.3Z" transform="translate(-0.1 -0.3)"/></g><g id="Calque_8" data-name="Calque 8"><path class="cls-3" d="M847.5,269.7A440.78,440.78,0,0,0,132.1,126.8c-.9.9-1.9,1.8-2.8,2.7-4.7,4.7-9.2,9.5-13.7,14.3A441.45,441.45,0,0,0,237.9,832.9c10.3,5.3,20.8,10.3,31.5,14.8a442.44,442.44,0,0,0,338.2,2.2c1.7-.7,3.4-1.4,5.2-2.1A441.45,441.45,0,0,0,847.5,269.7ZM525.5,30.8a412.8,412.8,0,0,1,73.9,22.5L509.7,271.6a196,196,0,0,0-32-12.3ZM238.4,421.3c-.6,3.1-1.1,6.3-1.6,9.5-8.3,37.6-53,260.3,23.5,388.3-7.5-3.6-15-7.5-22.3-11.5C109.4,736,22.2,598.6,22.2,441.3a416.66,416.66,0,0,1,88.4-257.1,145.36,145.36,0,0,1,56,12.3c34.4,15.1,101.2,85.7,116.6,121.6C258.7,346.4,245.6,382.5,238.4,421.3Zm80.8-135.7L212.2,90.5A411.36,411.36,0,0,1,269,59.3l78.2,210.3A187.92,187.92,0,0,0,319.2,285.6Zm73.5-30.3L372.6,27.9A422,422,0,0,1,416.4,23l13.9,229.3h-4A195.29,195.29,0,0,0,392.7,255.3ZM464.6,399a35.5,35.5,0,1,1-35.5,35.5A35.41,35.41,0,0,1,464.6,399Zm143,426.8c-10.6,4.6-21.5,8.8-32.6,12.6l-.8.3c-12.8-9.4-233.2-164.8-92.4-216.5.5-.2,1.1-.4,1.6-.6s1.1-.4,1.7-.6c1.3-.4,2.5-.8,3.8-1.3.6-.2,1.1-.4,1.7-.6.8-.3,1.6-.6,2.3-.9s1.1-.4,1.6-.6,1-.4,1.4-.6a18,18,0,0,1,2.1-.8l1.5-.6c.6-.3,1.2-.5,1.7-.8,1.9-.8,3.9-1.7,5.8-2.6.6-.3,1.1-.5,1.7-.8.2-.1.5-.2.7-.3a18.65,18.65,0,0,0,2-1l1.8-.9c.7-.4,1.4-.7,2.1-1.1s1.6-.9,2.4-1.3l2.1-1.2c1.8-1.1,3.7-2.1,5.5-3.3.6-.4,1.2-.7,1.8-1.1.8-.5,1.5-1,2.3-1.5s1.5-1,2.3-1.5l3.9-2.7c1-.7,1.9-1.4,2.8-2.1,1.3-.9,2.6-1.9,3.8-2.9.8-.7,1.7-1.3,2.5-2s1.4-1.1,2.1-1.7c2.1-1.7,4.1-3.5,6.1-5.3.7-.7,1.5-1.3,2.2-2,1.4-1.4,2.9-2.7,4.3-4.1,1.9-1.9,3.8-3.8,5.6-5.8l3.3-3.6c2.1-2.4,4.2-4.9,6.2-7.4,1-1.3,2-2.6,3-3.8,2.2-2.9,4.3-5.9,6.3-8.9s4-6.2,5.8-9.3c1.2-2,2.3-4,3.4-6,.6-1.1,1.2-2.2,1.7-3.3.8-1.5,1.5-2.9,2.2-4.4l2.1-4.5c.4-1,.9-2,1.3-3h0c1.7-4,3.3-8.1,4.7-12.3h0l2.7-1.5,108.8-60.4L606.9,385a189.68,189.68,0,0,0-57.7-87.5c10.3-36.9,81.3-128.3,113.6-147.2a144.67,144.67,0,0,1,60-19.2c84.4,76.7,137.5,187.3,137.5,310.1C860.1,613.2,756.1,761.3,607.6,825.8Z" transform="translate(-0.1 -0.3)"/></g></svg>