<?xml version="1.0" encoding="utf-8"?>
<!-- Generator: Adobe Illustrator 22.0.1, SVG Export Plug-In . SVG Version: 6.00 Build 0)  -->
<svg version="1.1" xmlns="http://www.w3.org/2000/svg" xmlns:xlink="http://www.w3.org/1999/xlink" x="0px" y="0px"
	 viewBox="0 0 882.3 882" style="enable-background:new 0 0 882.3 882;" xml:space="preserve">
<style type="text/css">
	.st0{display:none;}
	.st1{display:inline;}
	.st2{fill:none;}
	.st3{fill:#BBD7FF;}
</style>
<g id="Calque_1" class="st0">
	<g class="st1">
		<defs>
			<rect id="SVGID_1_" x="-558.9" y="-558.7" width="2000" height="2000"/>
		</defs>
		<clipPath id="SVGID_2_">
			<use xlink:href="#SVGID_1_"  style="overflow:visible;"/>
		</clipPath>
		<g style="clip-path:url(#SVGID_2_);">
			
				<image style="overflow:visible;" width="2592" height="4608" xlink:href="../IMG_20200110_172005.jpg"  transform="matrix(1 0 0 1 -854.8652 -1305.6722)">
			</image>
		</g>
	</g>
</g>
<g id="Calque_2">
</g>
<g id="Calque_4">
</g>
<g id="Calque_3">
	<g>
		<path class="st2" d="M619.6,521.7v324.1c-10.6,4.6-21.5,8.8-32.6,12.6l-0.8,0.3c-12.8-9.4-233.2-164.8-92.4-216.5
			c0.5-0.2,1.1-0.4,1.6-0.6c0.6-0.2,1.1-0.4,1.7-0.6c1.3-0.4,2.5-0.8,3.8-1.3c0.6-0.2,1.1-0.4,1.7-0.6c0.8-0.3,1.6-0.6,2.3-0.9
			c0.6-0.2,1.1-0.4,1.6-0.6c0.5-0.2,1-0.4,1.4-0.6c0.7-0.3,1.4-0.6,2.1-0.8c0.5-0.2,1-0.4,1.5-0.6c0.6-0.3,1.2-0.5,1.7-0.8
			c1.9-0.8,3.9-1.7,5.8-2.6c0.6-0.3,1.1-0.5,1.7-0.8c0.2-0.1,0.5-0.2,0.7-0.3c0.7-0.3,1.3-0.6,2-1c0.6-0.3,1.2-0.6,1.8-0.9
			c0.7-0.4,1.4-0.7,2.1-1.1c0.8-0.4,1.6-0.9,2.4-1.3c0.7-0.4,1.4-0.8,2.1-1.2c1.8-1.1,3.7-2.1,5.5-3.3c0.6-0.4,1.2-0.7,1.8-1.1
			c0.8-0.5,1.5-1,2.3-1.5c0.8-0.5,1.5-1,2.3-1.5c1.3-0.9,2.6-1.8,3.9-2.7c1-0.7,1.9-1.4,2.8-2.1c1.3-0.9,2.6-1.9,3.8-2.9
			c0.8-0.7,1.7-1.3,2.5-2c0.7-0.6,1.4-1.1,2.1-1.7c2.1-1.7,4.1-3.5,6.1-5.3c0.7-0.7,1.5-1.3,2.2-2c1.4-1.4,2.9-2.7,4.3-4.1
			c1.9-1.9,3.8-3.8,5.6-5.8c1.1-1.2,2.2-2.4,3.3-3.6c2.1-2.4,4.2-4.9,6.2-7.4c1-1.3,2-2.6,3-3.8c2.2-2.9,4.3-5.9,6.3-8.9
			c2-3,4-6.2,5.8-9.3c1.2-2,2.3-4,3.4-6c0.6-1.1,1.2-2.2,1.7-3.3c0.8-1.5,1.5-2.9,2.2-4.4c0.7-1.5,1.4-3,2.1-4.5c0.4-1,0.9-2,1.3-3
			c0,0,0,0,0,0c1.7-4,3.3-8.1,4.8-12.3L619.6,521.7z"/>
		<path class="st3" d="M470.1,826.3C470.1,826.3,470.1,826.3,470.1,826.3C470.1,826.3,470.2,826.3,470.1,826.3z"/>
	</g>
	<g>
		<path class="st2" d="M359.2,289.7c-9.8,4.5-19.2,9.9-28,16l-107-195.1c18-11.8,37-22.3,56.8-31.2L359.2,289.7z"/>
		<path class="st2" d="M442.3,272.4c-1.3,0-2.7,0-4,0c-11.5,0-22.7,1-33.6,3L384.6,47.9c14.4-2.4,29-4,43.8-4.9L442.3,272.4z"/>
		<path class="st2" d="M611.3,73.3l-89.7,218.3c-10.2-5-20.9-9.1-32-12.3l47.9-228.5C563,56.1,587.7,63.7,611.3,73.3z"/>
	</g>
</g>
<g id="Calque_8">
	<path d="M847.5,269.7c-22.2-52.5-54-99.7-94.5-140.2C712.5,89,665.3,57.2,612.8,35C558.4,12,500.7,0.3,441.1,0.3S323.9,12,269.5,35
		c-51.3,21.7-97.5,52.6-137.4,91.8c-0.9,0.9-1.9,1.8-2.8,2.7c-4.7,4.7-9.2,9.5-13.7,14.3c-34,37.2-61.2,79.4-80.8,125.9
		C11.8,324,0.1,381.8,0.1,441.3S11.8,558.6,34.8,613c22.2,52.5,54,99.7,94.5,140.2c32.2,32.2,68.7,58.9,108.6,79.7
		c10.3,5.3,20.8,10.3,31.5,14.8c54.4,23,112.1,34.7,171.7,34.7c57.7,0,113.6-10.9,166.5-32.5c1.7-0.7,3.4-1.4,5.2-2.1
		c52.5-22.2,99.7-54,140.2-94.5c40.5-40.5,72.3-87.7,94.5-140.2c23-54.4,34.7-112.1,34.7-171.7S870.5,324,847.5,269.7z M525.5,30.8
		c25.5,5.2,50.2,12.8,73.9,22.5l-89.7,218.3c-10.2-5-20.9-9.1-32-12.3L525.5,30.8z M238.4,421.3c-0.6,3.1-1.1,6.3-1.6,9.5
		c-8.3,37.6-53,260.3,23.5,388.3c-7.5-3.6-15-7.5-22.3-11.5c-128.6-71.6-215.8-209-215.8-366.3c0-96.8,33-186.1,88.4-257.1
		c19.9,0.4,38.8,4.7,56,12.3c34.4,15.1,101.2,85.7,116.6,121.6C258.7,346.4,245.6,382.5,238.4,421.3z M319.2,285.6l-107-195.1
		c18-11.8,37-22.3,56.8-31.2l78.2,210.3C337.3,274.2,328,279.5,319.2,285.6z M392.7,255.3L372.6,27.9c14.4-2.4,29-4,43.8-4.9
		l13.9,229.3c-1.3,0-2.7,0-4,0C414.8,252.3,403.6,253.4,392.7,255.3z M464.6,399c12.6,0,23.7,6.6,30,16.6c3.5,5.5,5.5,12,5.5,18.9
		c0,10.5-4.6,20-11.9,26.5c-6.3,5.6-14.5,9-23.6,9c-19.6,0-35.5-15.9-35.5-35.5C429.1,414.9,445,399,464.6,399z M607.6,825.8
		c-10.6,4.6-21.5,8.8-32.6,12.6l-0.8,0.3c-12.8-9.4-233.2-164.8-92.4-216.5c0.5-0.2,1.1-0.4,1.6-0.6c0.6-0.2,1.1-0.4,1.7-0.6
		c1.3-0.4,2.5-0.8,3.8-1.3c0.6-0.2,1.1-0.4,1.7-0.6c0.8-0.3,1.6-0.6,2.3-0.9c0.6-0.2,1.1-0.4,1.6-0.6c0.5-0.2,1-0.4,1.4-0.6
		c0.7-0.3,1.4-0.6,2.1-0.8c0.5-0.2,1-0.4,1.5-0.6c0.6-0.3,1.2-0.5,1.7-0.8c1.9-0.8,3.9-1.7,5.8-2.6c0.6-0.3,1.1-0.5,1.7-0.8
		c0.2-0.1,0.5-0.2,0.7-0.3c0.7-0.3,1.3-0.6,2-1c0.6-0.3,1.2-0.6,1.8-0.9c0.7-0.4,1.4-0.7,2.1-1.1c0.8-0.4,1.6-0.9,2.4-1.3
		c0.7-0.4,1.4-0.8,2.1-1.2c1.8-1.1,3.7-2.1,5.5-3.3c0.6-0.4,1.2-0.7,1.8-1.1c0.8-0.5,1.5-1,2.3-1.5c0.8-0.5,1.5-1,2.3-1.5
		c1.3-0.9,2.6-1.8,3.9-2.7c1-0.7,1.9-1.4,2.8-2.1c1.3-0.9,2.6-1.9,3.8-2.9c0.8-0.7,1.7-1.3,2.5-2c0.7-0.6,1.4-1.1,2.1-1.7
		c2.1-1.7,4.1-3.5,6.1-5.3c0.7-0.7,1.5-1.3,2.2-2c1.4-1.4,2.9-2.7,4.3-4.1c1.9-1.9,3.8-3.8,5.6-5.8c1.1-1.2,2.2-2.4,3.3-3.6
		c2.1-2.4,4.2-4.9,6.2-7.4c1-1.3,2-2.6,3-3.8c2.2-2.9,4.3-5.9,6.3-8.9c2-3,4-6.2,5.8-9.3c1.2-2,2.3-4,3.4-6c0.6-1.1,1.2-2.2,1.7-3.3
		c0.8-1.5,1.5-2.9,2.2-4.4c0.7-1.5,1.4-3,2.1-4.5c0.4-1,0.9-2,1.3-3c0,0,0,0,0,0c1.7-4,3.3-8.1,4.7-12.3l0,0l2.7-1.5l108.8-60.4
		l-109.6-56.2c-10.7-34.4-31-64.6-57.7-87.5c10.3-36.9,81.3-128.3,113.6-147.2c17.9-10.5,38.3-17.2,60-19.2
		c84.4,76.7,137.5,187.3,137.5,310.1C860.1,613.2,756.1,761.3,607.6,825.8z"/>
</g>
<g id="Calque_7">
</g>
<g id="Calque_6">
</g>
<g id="Calque_5">
</g>
</svg>
