<svg xmlns="http://www.w3.org/2000/svg" width="318.993" height="329.405" viewBox="0 0 318.993 329.405">
  <g id="Calque_2" data-name="Calque 2" transform="translate(-0.001 -0.002)">
    <g id="Capa_1" data-name="Capa 1" transform="translate(0.001 0.002)">
      <path id="Tracé_386" data-name="Tracé 386" d="M153.535,190.105a8.647,8.647,0,0,0-13.963,5.842c-2.688,23.37-10.633,44.636-15.833,66.546-.876,3.622-2.629,10.049-1.4,10.867,41.365,24.947-18.521,31.841-9.348,51.063,0,0-6.135,5.317-9.114,4.966-5.842-.584-6.193-6.193-6.66-11.159a85.826,85.826,0,0,1,5.433-34.237c6.719-20.858,15.658-40.43,7.946-64.618-4.908-15.19,31.725-53.926-15.483-40.9a8.238,8.238,0,0,1-9.29-3.213c-4.09-6.719-25.181-3.8-15.658-21.792,2.98-5.842.7-6.66-3.33-6.66a8.705,8.705,0,0,1-6.953-13.321c8.647-14.548,8.53-34.237,23.837-45.8,3.564-2.688.876-9.348-3.213-12.795C60.932,58.884,49.714,32.3,20.443,27.51c-5.842-.993-11.1-7.42-15.95-12.094C1.1,12.2-2.284,7.528,2.04,2.8a8.939,8.939,0,0,1,13.146.175C28.681,15.416,42.353,27.743,54.8,41.239a65.377,65.377,0,0,0,39.67,21.909c13.2,1.928,16.534-19.1,34.062-15.366,5.141,1.11,5.025-20.916,2.337-31.608v-.351a8.647,8.647,0,0,1,16.593-4.849A148.221,148.221,0,0,1,153.3,33.41c1.636,12.444,4.44,19.163,24.538,13.321s39.086-9.523,53.926-25.59a11.276,11.276,0,0,1,10.458-.643c5.2,2.921,4.148,7.946,1.052,12.444-3.8,5.842-6.31,12.97-11.685,16.651-24.129,17.527.409,33.01,2.571,48.434,1.928,13.671,15.95,1.227,24.6,1.344,15.541,0,31.14-.292,46.74-.467,5.842,0,13.554-2.162,13.5,6.193a10.575,10.575,0,0,1-14.781,9.523c-19.339-5.842-37.742-3.213-57.139,1.11-14.9,3.33-15.483,11.042-15.074,22.669,1.636,42.241,11.685,46.74,11.685,46.74a616.9,616.9,0,0,0,72.388,29.212l2.162,11.685a9.64,9.64,0,0,1-6.427,11.685c-11.685,3.681-21.091-1.694-27.869-10.692A125.613,125.613,0,0,0,230.6,183.386c-16.3-6.135-38.677-19.748-54.978,9.757C169.718,204.478,162.182,197.175,153.535,190.105Z" transform="translate(-0.001 -0.002)" fill="#34a5e0"/>
    </g>
  </g>
</svg>
