<svg xmlns="http://www.w3.org/2000/svg" xmlns:xlink="http://www.w3.org/1999/xlink" width="421.739" height="440.417" viewBox="0 0 421.739 440.417">
  <defs>
    <clipPath id="clip-path">
      <path id="Tracé_385" data-name="Tracé 385" d="M392.647,250.995a59.271,59.271,0,0,1-59.1,59.228c-16.922,0-29.878-9.122-40.19-16.393-1.322-.925-2.512-1.851-3.834-2.644-5.553-3.834-10.576-5.553-16.261-5.553a23.74,23.74,0,0,0-17.319,7.536,26.307,26.307,0,0,0-7.4,19.17c.132,4.1,1.058,6.875,2.512,11.105a89.288,89.288,0,0,1,4.363,16.261c1.454,9.254-1.19,18.376-7.668,26.044A38,38,0,0,1,219.327,379.1c-22.343,0-31.729-20.624-34.77-27.366-2.512-5.553-5.817-8.858-8.725-8.858a5.9,5.9,0,0,0-4.759,2.776C157.059,366.541,132.336,379.1,105.1,379.1c-45.214,0-81.967-36.885-81.967-82.231,0-28.027,10.973-51.427,29.217-62.665,5.156-3.173,7.668-6.214,7.668-9.122,0-3.7-3.966-6.478-7.932-7.271C20.359,211.466,0,188.594,0,159.245a59.271,59.271,0,0,1,59.1-59.228A57.385,57.385,0,0,1,99.418,116.94a22.1,22.1,0,0,0,16.922,7.139c11.634,0,21.549-8.593,21.814-18.773,0-2.908-.132-13.088-.132-16.79v-.264c0-44.817,35.7-79.851,81.306-79.851,45.214,0,81.967,36.885,81.967,82.231,0,19.7-9.519,41.38-16.526,57.112l-.264.661c-5.024,11.237-4.892,21.549.4,29.482,5.949,9.122,18.112,14.675,31.861,14.675a25.653,25.653,0,0,0,4.495-.264c3.437-.264,9.651-.529,12.824-.529h.925C366.735,191.635,392.647,218.34,392.647,250.995Z" transform="translate(0 -8.4)" fill="#ff003d"/>
    </clipPath>
  </defs>
  <g id="color-splash" transform="translate(375.411 -1.169) rotate(82)">
    <g id="Groupe_de_masques_2" data-name="Groupe de masques 2" transform="translate(0 8.4)" clip-path="url(#clip-path)">
      <g id="Calque_2" data-name="Calque 2" transform="translate(11.703)">
        <g id="Capa_1" data-name="Capa 1">
          <path id="Tracé_388" data-name="Tracé 388" d="M151.1,337.614c-12.5,7.025,1.756,25.289-11.942,33.087-16.649-11.029-2.318-23.112-1.616-34.422,1.264-17.984-5.479-30.418-23.533-19.74-23.533,14.05-25.851,3.231-25.36-16.157,0-9.413.983-19.74-9.343-24.517C65.893,269.754,70.529,286.192,64,289.213s-21.075,9.975-18.827.843C57.042,244.324,16.157,262.94,0,250.225c9.413-15.946,20.161-1.194,29.715-1.4,15.455-.351,30.488.983,17.141-22.69a57.393,57.393,0,0,1-3.442-56.2c5.76-12.434-8.289-33.649,4.777-51.633S67.579,78.538,92.1,73.41c17.141-3.512,5.55-21.075,14.05-28.1,25.5,15.806,33.227,10.327,49.947-39.69,10.116,46.083,44.327,18.335,64.418,28.1C260.27,52.686,259.919,7.727,281.766,0c8.43,14.05-2.459,20.583-8.5,28.1-5.2,6.6-10.959,12.926-4.917,21.707s12.715,7.657,20.583,1.826,20.723-3.653,16.3,5.9c-10.537,22.339,2.388,28.1,17.7,33.86,33.86,13,16.579,45.732,24.868,68.352,6.463,17.7,16.3,41.166-3.583,62.029-7.025,7.727-.7,19.88,14.05,20.442,6.041,0,12.434,3.3,10.678,10.678s-7.587,7.517-14.05,6.463c-17.7-2.74-39.058-11.8-42.852,17.422-3.091,23.463,14.05,30.839,32.525,36.951a19.178,19.178,0,0,1,14.05,17.562c-16.438-5.339-38.777-19.178-45.732-13.628-26.975,21.075-58.8,2.178-85.422,16.087a36.6,36.6,0,0,1-33.3,3.793c-24.1-8.149-4.215,25.57-23.041,31.963C158.691,364.378,172.881,338.106,151.1,337.614Z" fill="#ff003d"/>
        </g>
      </g>
    </g>
  </g>
</svg>
