<svg xmlns="http://www.w3.org/2000/svg" xmlns:xlink="http://www.w3.org/1999/xlink" width="437.235" height="425.666" viewBox="0 0 437.235 425.666">
  <defs>
    <clipPath id="clip-path">
      <path id="Tracé_385" data-name="Tracé 385" d="M346.3,222.359a52.275,52.275,0,0,1-52.12,52.236c-14.925,0-26.351-8.045-35.446-14.458-1.166-.816-2.215-1.632-3.381-2.332-4.9-3.381-9.328-4.9-14.342-4.9a20.938,20.938,0,0,0-15.274,6.646,23.2,23.2,0,0,0-6.53,16.907c.117,3.615.933,6.063,2.215,9.794a78.751,78.751,0,0,1,3.848,14.342,28.217,28.217,0,0,1-6.763,22.97,33.511,33.511,0,0,1-25.069,11.776c-19.705,0-27.984-18.189-30.665-24.136-2.215-4.9-5.13-7.812-7.7-7.812a5.2,5.2,0,0,0-4.2,2.449c-12.359,18.423-34.163,29.5-58.183,29.5A72.478,72.478,0,0,1,20.4,262.818c0-24.719,9.678-45.357,25.768-55.268,4.547-2.8,6.763-5.48,6.763-8.045,0-3.265-3.5-5.713-7-6.413C17.956,187.5,0,167.324,0,141.439A52.275,52.275,0,0,1,52.12,89.2a50.611,50.611,0,0,1,35.563,14.925,19.49,19.49,0,0,0,14.925,6.3c10.261,0,19.006-7.579,19.239-16.557,0-2.565-.117-11.543-.117-14.808v-.233C121.729,39.3,153.211,8.4,193.437,8.4a72.478,72.478,0,0,1,72.291,72.524c0,17.373-8.4,36.5-14.575,50.371l-.233.583c-4.431,9.911-4.314,19.006.35,26,5.247,8.045,15.974,12.942,28.1,12.942a22.626,22.626,0,0,0,3.964-.233c3.032-.233,8.512-.466,11.31-.466h.816C323.445,170.006,346.3,193.559,346.3,222.359Z" transform="translate(0 -8.4)" fill="#ffe600"/>
    </clipPath>
  </defs>
  <g id="color-splash" transform="matrix(-0.94, 0.342, -0.342, -0.94, 382.404, 327.022)">
    <g id="Groupe_de_masques_1" data-name="Groupe de masques 1" transform="translate(-58.295 -0.15)" clip-path="url(#clip-path)">
      <g id="Calque_2" data-name="Calque 2" transform="translate(21.56 0)">
        <g id="Capa_1" data-name="Capa 1">
          <path id="Tracé_387" data-name="Tracé 387" d="M177.621,70.206C190.749,67.4,188.5,36.825,208.982,58.368c2.132,2.3,6.788-11.221,9.986-17.5s4.039-16.831,14.811-11.838c9.537,4.488,10.211,12.623,3.534,20.758-9.594,11.782-11.221,21.992,4.376,30.239,1.907,1.066,2.244,6.171,3.815,6.452,7.462,1.29,15.54-16.831,21.656-.673,2.02,5.61-6.788,14.194-7.854,21.768-.9,6.34-4.488,16.214,5.61,19.131s9.369-7.518,12.4-12.286c6.732-10.379,8.584-24.461,25.863-28.051-19.916,21.487,14.587,59.581-26.032,74.953-3.254,1.234-8.584,7.406-2.244,10.547s15.54,3.142,9.537,14.362-15.092-2.412-23.058,3.31c2.805,14.7,16.158,17.672,26.873,23.17,9.145,4.713,13.016,12.96,8.191,20.646s-12.567,3.591-19.748-.449c-21.151-11.782-38.543-13.689-65.64-8.415.673,8.079,7.8,9.033,13.072,12.511,6.452,4.32,10.716,11.95,6.508,19.019s-10.6,2.749-16.438-.729c-16.27-9.818-17.56.729-14.306,12.4,1.851,6.564,3.759,12.006-.785,18.626-2.356-1.29-4.657-2.412-6.788-3.759-7.686-4.881,1.964-24.068-11.725-19.86-11.838,3.647-6,19.412-4.488,29.678.9,5.61,7.406,10.66,9.033,16.831a12.735,12.735,0,0,1-9.65,17.336c-9.033,1.739-13.913-3.871-14.138-12.735-.337-12.791,0-25.583,0-44.882-19.131,32.091-38.486,14.643-55.6,8.752-5.891-2.02-9.369-9.369-14.306-.5-3.254,5.61-3.7,21.431-12.23,10.267-4.769-6.283-33.662-10.211-12.174-29.734,4.6-4.152,11.221-11.613,4.264-18.289-3.647-3.647-9.93-1.01-15.092,2.693-6.564,4.769-13.745,19.916-21.656,8.808s6.62-16.438,15.316-21.6a99.192,99.192,0,0,0,11.838-10.828c-32.652,3.03-22.441-25.3-22.441-33.662,0-16.831-15.821-4.152-15.316-13.24,6.957-14.643,23.563-5.61,36.747-14.867C29.51,143.476,33.886,118.229,38.262,95c3.422-17.56-1.683-26.48-17.111-34.447A39.272,39.272,0,0,1,0,29.643c0-3.2,5.218-7.125,10.66-7.518C26.088,20.891,30.3,32.953,37.14,42.884,44.826,54.1,58.347,59.714,64.181,73.74c2.693,6.508,12.679,10.716,21.712,9.369,11.221-1.683,12.567-8.528,9.2-18.177-.561-1.683,1.851-5.61,3.871-6.788,11.221-6.62-.393-29.454,16.1-28.051,14.923,1.234,7.069,18.289,9.313,28.051,2.02,9.145,8.808,8.135,15.2,8.135,9.145,0,9.986-6.508,10.211-13.465.337-12.9,0-25.583,4.937-38.318C158.21,5.912,160.341-2.335,171.113.47s9.762,12.679,8.752,21.095C177.789,37.947,164.437,53.824,177.621,70.206Z" transform="translate(0 0.088)" fill="#ffe600"/>
        </g>
      </g>
    </g>
  </g>
</svg>
