<svg xmlns="http://www.w3.org/2000/svg" xmlns:xlink="http://www.w3.org/1999/xlink" width="445.047" height="438.243" viewBox="0 0 445.047 438.243">
  <defs>
    <clipPath id="clip-path">
      <path id="Tracé_385" data-name="Tracé 385" d="M332.6,213.9a50.207,50.207,0,0,1-50.058,50.17c-14.334,0-25.309-7.727-34.044-13.886-1.12-.784-2.128-1.568-3.248-2.24-4.7-3.248-8.959-4.7-13.774-4.7a20.11,20.11,0,0,0-14.67,6.383,22.284,22.284,0,0,0-6.271,16.238c.112,3.472.9,5.823,2.128,9.407a75.634,75.634,0,0,1,3.7,13.774,27.1,27.1,0,0,1-6.5,22.061,32.185,32.185,0,0,1-24.077,11.311c-18.926,0-26.877-17.47-29.453-23.181-2.128-4.7-4.927-7.5-7.391-7.5a5,5,0,0,0-4.032,2.352c-11.871,17.694-32.812,28.333-55.882,28.333A69.611,69.611,0,0,1,19.6,252.756c0-23.741,9.295-43.563,24.749-53.082,4.367-2.688,6.5-5.263,6.5-7.727,0-3.136-3.36-5.487-6.719-6.159C17.246,180.412,0,161.038,0,136.177a50.207,50.207,0,0,1,50.058-50.17,48.61,48.61,0,0,1,34.156,14.334,18.719,18.719,0,0,0,14.334,6.047c9.855,0,18.254-7.279,18.478-15.9,0-2.464-.112-11.087-.112-14.222V76.04c0-37.964,30.236-67.64,68.872-67.64a69.612,69.612,0,0,1,69.432,69.656c0,16.686-8.063,35.052-14,48.378l-.224.56c-4.256,9.519-4.144,18.254.336,24.973,5.039,7.727,15.342,12.431,26.989,12.431a21.729,21.729,0,0,0,3.808-.224c2.912-.224,8.175-.448,10.863-.448h.784C310.652,163.614,332.6,186.235,332.6,213.9Z" transform="translate(0 -8.4)" fill="#ff9123"/>
    </clipPath>
  </defs>
  <g id="color-splash" transform="translate(449.247 279.217) rotate(150)">
    <g id="Groupe_de_masques_2" data-name="Groupe de masques 2" transform="translate(0 8.4)" clip-path="url(#clip-path)">
      <g id="Calque_2" data-name="Calque 2" transform="translate(9.914)">
        <g id="Capa_1" data-name="Capa 1">
          <path id="Tracé_388" data-name="Tracé 388" d="M128,285.984c-10.592,5.951,1.488,21.422-10.116,28.027-14.1-9.342-1.964-19.577-1.369-29.158,1.071-15.233-4.641-25.766-19.934-16.721-19.934,11.9-21.9,2.737-21.482-13.686,0-7.974.833-16.721-7.914-20.768-11.366-5.177-7.438,8.747-12.972,11.306s-17.852,8.45-15.948.714C48.319,206.961,13.686,222.73,0,211.959c7.974-13.508,17.078-1.012,25.171-1.19,13.091-.3,25.825.833,14.519-19.22a48.616,48.616,0,0,1-2.916-47.6c4.879-10.533-7.022-28.5,4.046-43.737s16.424-33.68,37.191-38.024c14.519-2.975,4.7-17.852,11.9-23.8,21.6,13.389,28.146,8.747,42.309-33.621,8.569,39.036,37.548,15.531,54.567,23.8C220.469,44.629,220.171,6.546,238.677,0c7.141,11.9-2.083,17.435-7.2,23.8-4.4,5.594-9.283,10.949-4.165,18.387s10.771,6.486,17.435,1.547,17.554-3.094,13.805,5c-8.926,18.923,2.023,23.8,15,28.682,28.682,11.009,14.043,38.738,21.065,57.9,5.474,15,13.805,34.87-3.035,52.544-5.951,6.546-.6,16.84,11.9,17.316,5.117,0,10.533,2.8,9.045,9.045s-6.427,6.367-11.9,5.475c-15-2.321-33.085-10-36.3,14.757-2.618,19.875,11.9,26.123,27.551,31.3a16.245,16.245,0,0,1,11.9,14.876c-13.924-4.522-32.847-16.245-38.738-11.544-22.85,17.852-49.806,1.845-72.359,13.627a31,31,0,0,1-28.206,3.213c-20.41-6.9-3.57,21.66-19.518,27.075C134.423,308.656,146.443,286.4,128,285.984Z" fill="#ff9123"/>
        </g>
      </g>
    </g>
  </g>
</svg>
