<?xml version="1.0" encoding="utf-8"?>
<!-- Generator: Adobe Illustrator 24.0.1, SVG Export Plug-In . SVG Version: 6.00 Build 0)  -->
<svg version="1.1" id="Groupe_4" xmlns="http://www.w3.org/2000/svg" xmlns:xlink="http://www.w3.org/1999/xlink" x="0px" y="0px"
	 viewBox="0 0 31 31" style="enable-background:new 0 0 31 31;" xml:space="preserve">
<style type="text/css">
	.st0{fill:#62C22B;}
	.st1{fill:#FAEEE7;}
</style>
<circle id="Ellipse_1" class="st0" cx="15.5" cy="15.5" r="15.5"/>
<path id="Tracé_281" class="st1" d="M10,12.4c2.3,0,4.4,0.9,6,2.5s2.5,3.8,2.5,6H16c0-1.6-0.6-3.2-1.8-4.3
	c-1.1-1.1-2.7-1.8-4.3-1.8L10,12.4L10,12.4z M13.3,18.4c-0.2-0.3-0.4-0.5-0.6-0.6c-0.3-0.2-0.6-0.2-0.9-0.2c-0.3,0-0.6,0.1-0.9,0.2
	c-0.3,0.1-0.5,0.4-0.6,0.6C10.1,18.7,10,19,10,19.3s0.1,0.6,0.2,0.9c0.2,0.3,0.4,0.5,0.6,0.6c0.3,0.2,0.6,0.2,0.9,0.2
	c0.3,0,0.6-0.1,0.9-0.2c0.3-0.2,0.5-0.4,0.6-0.6C13.6,19.6,13.6,18.9,13.3,18.4z M10.1,8c1.7,0,3.4,0.3,5,1c4.8,2,7.9,6.7,7.9,12
	h-2.5c0-4.2-2.5-8-6.4-9.7c-1.3-0.5-2.7-0.8-4-0.8V8L10.1,8z"/>
</svg>
